<svg width="109" height="24" viewBox="0 0 109 24" fill="none" xmlns="http://www.w3.org/2000/svg">
<path d="M6.84668 17.374V12.4785C6.84668 12.1035 6.77051 11.7783 6.61816 11.5029C6.47168 11.2217 6.24902 11.0049 5.9502 10.8525C5.65137 10.7002 5.28223 10.624 4.84277 10.624C4.43262 10.624 4.07227 10.6943 3.76172 10.835C3.45703 10.9756 3.2168 11.1602 3.04102 11.3887C2.87109 11.6172 2.78613 11.8633 2.78613 12.127H1.16016C1.16016 11.7871 1.24805 11.4502 1.42383 11.1162C1.59961 10.7822 1.85156 10.4805 2.17969 10.2109C2.51367 9.93555 2.91211 9.71875 3.375 9.56055C3.84375 9.39648 4.36523 9.31445 4.93945 9.31445C5.63086 9.31445 6.24023 9.43164 6.76758 9.66602C7.30078 9.90039 7.7168 10.2549 8.01562 10.7295C8.32031 11.1982 8.47266 11.7871 8.47266 12.4961V16.9258C8.47266 17.2422 8.49902 17.5791 8.55176 17.9365C8.61035 18.2939 8.69531 18.6016 8.80664 18.8594V19H7.11035C7.02832 18.8125 6.96387 18.5635 6.91699 18.2529C6.87012 17.9365 6.84668 17.6436 6.84668 17.374ZM7.12793 13.2344L7.14551 14.377H5.50195C5.03906 14.377 4.62598 14.415 4.2627 14.4912C3.89941 14.5615 3.59473 14.6699 3.34863 14.8164C3.10254 14.9629 2.91504 15.1475 2.78613 15.3701C2.65723 15.5869 2.59277 15.8418 2.59277 16.1348C2.59277 16.4336 2.66016 16.7061 2.79492 16.9521C2.92969 17.1982 3.13184 17.3945 3.40137 17.541C3.67676 17.6816 4.01367 17.752 4.41211 17.752C4.91016 17.752 5.34961 17.6465 5.73047 17.4355C6.11133 17.2246 6.41309 16.9668 6.63574 16.6621C6.86426 16.3574 6.9873 16.0615 7.00488 15.7744L7.69922 16.5566C7.6582 16.8027 7.54688 17.0752 7.36523 17.374C7.18359 17.6729 6.94043 17.96 6.63574 18.2354C6.33691 18.5049 5.97949 18.7305 5.56348 18.9121C5.15332 19.0879 4.69043 19.1758 4.1748 19.1758C3.53027 19.1758 2.96484 19.0498 2.47852 18.7979C1.99805 18.5459 1.62305 18.209 1.35352 17.7871C1.08984 17.3594 0.958008 16.8818 0.958008 16.3545C0.958008 15.8447 1.05762 15.3965 1.25684 15.0098C1.45605 14.6172 1.74316 14.292 2.11816 14.0342C2.49316 13.7705 2.94434 13.5713 3.47168 13.4365C3.99902 13.3018 4.58789 13.2344 5.23828 13.2344H7.12793ZM12.7969 5.5V19H11.1621V5.5H12.7969ZM21.5684 9.49023H23.0449V18.7979C23.0449 19.6357 22.875 20.3506 22.5352 20.9424C22.1953 21.5342 21.7207 21.9824 21.1113 22.2871C20.5078 22.5977 19.8105 22.7529 19.0195 22.7529C18.6914 22.7529 18.3047 22.7002 17.8594 22.5947C17.4199 22.4951 16.9863 22.3223 16.5586 22.0762C16.1367 21.8359 15.7822 21.5107 15.4951 21.1006L16.3477 20.1338C16.7461 20.6143 17.1621 20.9482 17.5957 21.1357C18.0352 21.3232 18.4688 21.417 18.8965 21.417C19.4121 21.417 19.8574 21.3203 20.2324 21.127C20.6074 20.9336 20.8975 20.6465 21.1025 20.2656C21.3135 19.8906 21.4189 19.4277 21.4189 18.877V11.582L21.5684 9.49023ZM15.0205 14.3506V14.166C15.0205 13.4395 15.1055 12.7803 15.2754 12.1885C15.4512 11.5908 15.7002 11.0781 16.0225 10.6504C16.3506 10.2227 16.7461 9.89453 17.209 9.66602C17.6719 9.43164 18.1934 9.31445 18.7734 9.31445C19.3711 9.31445 19.8926 9.41992 20.3379 9.63086C20.7891 9.83594 21.1699 10.1377 21.4805 10.5361C21.7969 10.9287 22.0459 11.4033 22.2275 11.96C22.4092 12.5166 22.5352 13.1465 22.6055 13.8496V14.6582C22.541 15.3555 22.415 15.9824 22.2275 16.5391C22.0459 17.0957 21.7969 17.5703 21.4805 17.9629C21.1699 18.3555 20.7891 18.6572 20.3379 18.8682C19.8867 19.0732 19.3594 19.1758 18.7559 19.1758C18.1875 19.1758 17.6719 19.0557 17.209 18.8154C16.752 18.5752 16.3594 18.2383 16.0312 17.8047C15.7031 17.3711 15.4512 16.8613 15.2754 16.2754C15.1055 15.6836 15.0205 15.042 15.0205 14.3506ZM16.6465 14.166V14.3506C16.6465 14.8252 16.6934 15.2705 16.7871 15.6865C16.8867 16.1025 17.0361 16.4688 17.2354 16.7852C17.4404 17.1016 17.7012 17.3506 18.0176 17.5322C18.334 17.708 18.7119 17.7959 19.1514 17.7959C19.6904 17.7959 20.1357 17.6816 20.4873 17.4531C20.8389 17.2246 21.1172 16.9229 21.3223 16.5479C21.5332 16.1729 21.6973 15.7656 21.8145 15.3262V13.208C21.75 12.8857 21.6504 12.5752 21.5156 12.2764C21.3867 11.9717 21.2168 11.7021 21.0059 11.4678C20.8008 11.2275 20.5459 11.0371 20.2412 10.8965C19.9365 10.7559 19.5791 10.6855 19.1689 10.6855C18.7236 10.6855 18.3398 10.7793 18.0176 10.9668C17.7012 11.1484 17.4404 11.4004 17.2354 11.7227C17.0361 12.0391 16.8867 12.4082 16.7871 12.8301C16.6934 13.2461 16.6465 13.6914 16.6465 14.166ZM31.1221 17.374V12.4785C31.1221 12.1035 31.0459 11.7783 30.8936 11.5029C30.7471 11.2217 30.5244 11.0049 30.2256 10.8525C29.9268 10.7002 29.5576 10.624 29.1182 10.624C28.708 10.624 28.3477 10.6943 28.0371 10.835C27.7324 10.9756 27.4922 11.1602 27.3164 11.3887C27.1465 11.6172 27.0615 11.8633 27.0615 12.127H25.4355C25.4355 11.7871 25.5234 11.4502 25.6992 11.1162C25.875 10.7822 26.127 10.4805 26.4551 10.2109C26.7891 9.93555 27.1875 9.71875 27.6504 9.56055C28.1191 9.39648 28.6406 9.31445 29.2148 9.31445C29.9062 9.31445 30.5156 9.43164 31.043 9.66602C31.5762 9.90039 31.9922 10.2549 32.291 10.7295C32.5957 11.1982 32.748 11.7871 32.748 12.4961V16.9258C32.748 17.2422 32.7744 17.5791 32.8271 17.9365C32.8857 18.2939 32.9707 18.6016 33.082 18.8594V19H31.3857C31.3037 18.8125 31.2393 18.5635 31.1924 18.2529C31.1455 17.9365 31.1221 17.6436 31.1221 17.374ZM31.4033 13.2344L31.4209 14.377H29.7773C29.3145 14.377 28.9014 14.415 28.5381 14.4912C28.1748 14.5615 27.8701 14.6699 27.624 14.8164C27.3779 14.9629 27.1904 15.1475 27.0615 15.3701C26.9326 15.5869 26.8682 15.8418 26.8682 16.1348C26.8682 16.4336 26.9355 16.7061 27.0703 16.9521C27.2051 17.1982 27.4072 17.3945 27.6768 17.541C27.9521 17.6816 28.2891 17.752 28.6875 17.752C29.1855 17.752 29.625 17.6465 30.0059 17.4355C30.3867 17.2246 30.6885 16.9668 30.9111 16.6621C31.1396 16.3574 31.2627 16.0615 31.2803 15.7744L31.9746 16.5566C31.9336 16.8027 31.8223 17.0752 31.6406 17.374C31.459 17.6729 31.2158 17.96 30.9111 18.2354C30.6123 18.5049 30.2549 18.7305 29.8389 18.9121C29.4287 19.0879 28.9658 19.1758 28.4502 19.1758C27.8057 19.1758 27.2402 19.0498 26.7539 18.7979C26.2734 18.5459 25.8984 18.209 25.6289 17.7871C25.3652 17.3594 25.2334 16.8818 25.2334 16.3545C25.2334 15.8447 25.333 15.3965 25.5322 15.0098C25.7314 14.6172 26.0186 14.292 26.3936 14.0342C26.7686 13.7705 27.2197 13.5713 27.7471 13.4365C28.2744 13.3018 28.8633 13.2344 29.5137 13.2344H31.4033ZM37.8105 11.5205V19H34.8486V9.49023H37.626L37.8105 11.5205ZM37.459 13.9199L36.7646 13.9375C36.7646 13.2109 36.8525 12.5635 37.0283 11.9951C37.2041 11.4209 37.4531 10.9346 37.7754 10.5361C38.0977 10.1377 38.4814 9.83594 38.9268 9.63086C39.3779 9.41992 39.8789 9.31445 40.4297 9.31445C40.8691 9.31445 41.2705 9.37891 41.6338 9.50781C42.0029 9.63672 42.3193 9.84473 42.583 10.1318C42.8525 10.4189 43.0576 10.7998 43.1982 11.2744C43.3447 11.7432 43.418 12.3232 43.418 13.0146V19H40.4385V13.0059C40.4385 12.625 40.3857 12.335 40.2803 12.1357C40.1748 11.9307 40.0225 11.79 39.8232 11.7139C39.624 11.6377 39.3809 11.5996 39.0938 11.5996C38.7891 11.5996 38.5312 11.6582 38.3203 11.7754C38.1094 11.8926 37.9395 12.0566 37.8105 12.2676C37.6875 12.4727 37.5967 12.7158 37.5381 12.9971C37.4854 13.2783 37.459 13.5859 37.459 13.9199ZM49.667 19.1758C48.8936 19.1758 48.2021 19.0557 47.5928 18.8154C46.9834 18.5693 46.4678 18.2324 46.0459 17.8047C45.6299 17.377 45.3105 16.8848 45.0879 16.3281C44.8711 15.7715 44.7627 15.1826 44.7627 14.5615V14.2275C44.7627 13.5303 44.8594 12.8857 45.0527 12.2939C45.2461 11.6963 45.5332 11.1748 45.9141 10.7295C46.2949 10.2842 46.7725 9.93848 47.3467 9.69238C47.9209 9.44043 48.5889 9.31445 49.3506 9.31445C50.0244 9.31445 50.6279 9.42285 51.1611 9.63965C51.6943 9.85645 52.1455 10.167 52.5146 10.5713C52.8896 10.9756 53.1738 11.4648 53.3672 12.0391C53.5664 12.6133 53.666 13.2578 53.666 13.9727V15.1768H45.8965V13.3223H50.7744V13.0938C50.7803 12.7773 50.7246 12.5078 50.6074 12.2852C50.4961 12.0625 50.332 11.8926 50.1152 11.7754C49.8984 11.6582 49.6348 11.5996 49.3242 11.5996C49.002 11.5996 48.7354 11.6699 48.5244 11.8105C48.3193 11.9512 48.1582 12.1445 48.041 12.3906C47.9297 12.6309 47.8506 12.9092 47.8037 13.2256C47.7568 13.542 47.7334 13.876 47.7334 14.2275V14.5615C47.7334 14.9131 47.7803 15.2324 47.874 15.5195C47.9736 15.8066 48.1143 16.0527 48.2959 16.2578C48.4834 16.457 48.7061 16.6123 48.9639 16.7236C49.2275 16.835 49.5264 16.8906 49.8604 16.8906C50.2646 16.8906 50.6631 16.8145 51.0557 16.6621C51.4482 16.5098 51.7852 16.2578 52.0664 15.9062L53.4111 17.5059C53.2178 17.7812 52.9424 18.0479 52.585 18.3057C52.2334 18.5635 51.8115 18.7744 51.3193 18.9385C50.8271 19.0967 50.2764 19.1758 49.667 19.1758ZM57.7617 16.1699L59.5195 9.49023H61.374L60.7148 12.8389L58.9746 19H57.4893L57.7617 16.1699ZM57.0674 9.49023L58.1572 16.1172L58.2803 19H56.4785L54.2285 9.49023H57.0674ZM62.9385 15.9766L64.0371 9.49023H66.876L64.6436 19H62.8418L62.9385 15.9766ZM61.585 9.49023L63.3604 16.1523L63.6328 19H62.1299L60.4248 12.8564L59.792 9.49023H61.585ZM72.9316 16.3281C72.9316 16.1641 72.876 16.0234 72.7646 15.9062C72.6592 15.7832 72.4717 15.6719 72.2021 15.5723C71.9326 15.4668 71.5547 15.3613 71.0684 15.2559C70.6055 15.1562 70.1689 15.0244 69.7588 14.8604C69.3545 14.6963 69 14.4971 68.6953 14.2627C68.3906 14.0283 68.1504 13.75 67.9746 13.4277C67.8047 13.1055 67.7197 12.7363 67.7197 12.3203C67.7197 11.916 67.8047 11.5352 67.9746 11.1777C68.1504 10.8145 68.4053 10.4951 68.7393 10.2197C69.0791 9.93848 69.4922 9.71875 69.9785 9.56055C70.4648 9.39648 71.0186 9.31445 71.6396 9.31445C72.4951 9.31445 73.2334 9.44629 73.8545 9.70996C74.4756 9.96777 74.9531 10.3311 75.2871 10.7998C75.627 11.2627 75.7969 11.7988 75.7969 12.4082H72.835C72.835 12.168 72.7939 11.9629 72.7119 11.793C72.6357 11.623 72.5098 11.4941 72.334 11.4062C72.1582 11.3125 71.9238 11.2656 71.6309 11.2656C71.4258 11.2656 71.2383 11.3037 71.0684 11.3799C70.9043 11.4561 70.7725 11.5615 70.6729 11.6963C70.5732 11.8311 70.5234 11.9893 70.5234 12.1709C70.5234 12.2998 70.5527 12.417 70.6113 12.5225C70.6758 12.6221 70.7725 12.7158 70.9014 12.8037C71.0303 12.8857 71.1943 12.9619 71.3936 13.0322C71.5928 13.0967 71.833 13.1553 72.1143 13.208C72.7529 13.3252 73.3506 13.4922 73.9072 13.709C74.4639 13.9258 74.915 14.2334 75.2607 14.6318C75.6123 15.0303 75.7881 15.5664 75.7881 16.2402C75.7881 16.6621 75.6914 17.0518 75.498 17.4092C75.3047 17.7607 75.0264 18.0713 74.6631 18.3408C74.2998 18.6045 73.8633 18.8096 73.3535 18.9561C72.8438 19.1025 72.2695 19.1758 71.6309 19.1758C70.7227 19.1758 69.9551 19.0146 69.3281 18.6924C68.7012 18.3643 68.2266 17.9541 67.9043 17.4619C67.5879 16.9639 67.4297 16.46 67.4297 15.9502H70.1895C70.2012 16.2432 70.2715 16.4834 70.4004 16.6709C70.5352 16.8584 70.7139 16.9961 70.9365 17.084C71.1592 17.1719 71.417 17.2158 71.71 17.2158C71.9795 17.2158 72.2021 17.1777 72.3779 17.1016C72.5596 17.0254 72.6973 16.9229 72.791 16.7939C72.8848 16.6592 72.9316 16.5039 72.9316 16.3281Z" fill="#1E94D2"/>
<path d="M105 17C105 17.2652 104.895 17.5196 104.707 17.7071C104.52 17.8946 104.265 18 104 18C103.735 18 103.48 17.8946 103.293 17.7071C103.105 17.5196 103 17.2652 103 17V5C103 4.73478 102.895 4.48043 102.707 4.29289C102.52 4.10536 102.265 4 102 4H88C87.7348 4 87.4804 4.10536 87.2929 4.29289C87.1054 4.48043 87 4.73478 87 5V18C87 18.5304 87.2107 19.0391 87.5858 19.4142C87.9609 19.7893 88.4696 20 89 20H104C105.654 20 107 18.654 107 17V7H105V17ZM97 7H100V9H97V7ZM97 11H100V13H97V11ZM90 7H95V13H90V7ZM90 17V15H100V17H90Z" fill="#274060"/>
</svg>
